<svg width="244.316" height="31.152" viewBox="0 0 244.316 31.152" xmlns="http://www.w3.org/2000/svg"><g id="svgGroup" stroke-linecap="round" fill-rule="evenodd" font-size="9pt" stroke="#000" stroke-width="0.25mm" fill="#000" style="stroke:#000;stroke-width:0.25mm;fill:#000"><path d="M 89.688 12.383 A 3.453 3.453 0 0 0 89.705 12.202 Q 89.719 11.994 89.724 11.684 A 20.964 20.964 0 0 0 89.727 11.357 A 2.435 2.435 0 0 0 89.639 10.691 A 2.021 2.021 0 0 0 89.375 10.117 Q 89.375 9.944 89.823 9.793 A 3.184 3.184 0 0 1 89.941 9.756 A 4.077 4.077 0 0 1 91.094 9.59 A 4.361 4.361 0 0 1 92.091 9.697 Q 93.091 9.932 93.662 10.684 A 4.13 4.13 0 0 1 94.31 11.895 A 3.674 3.674 0 0 1 94.492 13.047 A 7.321 7.321 0 0 1 94.272 14.797 A 9.077 9.077 0 0 1 94.004 15.684 A 16.414 16.414 0 0 1 93.421 17.093 Q 93.096 17.789 92.683 18.533 A 26.773 26.773 0 0 1 92.627 18.633 A 129.572 129.572 0 0 1 90.99 21.461 A 142.648 142.648 0 0 1 90.742 21.875 Q 88.047 26.328 86.133 30.879 A 4.022 4.022 0 0 1 85.092 31.126 A 4.976 4.976 0 0 1 84.57 31.152 Q 83.711 31.152 82.939 30.82 Q 82.168 30.488 81.816 30.039 A 5.697 5.697 0 0 1 81.422 29.341 Q 80.476 27.431 78.52 21.759 A 274.297 274.297 0 0 1 78.379 21.348 A 43.933 43.933 0 0 0 77.664 22.666 Q 76.829 24.265 75.781 26.514 A 1270.497 1270.497 0 0 1 75.162 27.841 Q 74.142 30.024 73.73 30.879 Q 73.027 31.152 72.148 31.152 A 4.488 4.488 0 0 1 70.449 30.82 Q 69.629 30.488 69.326 30.078 A 2.024 2.024 0 0 1 69.187 29.849 Q 68.831 29.188 67.998 27.109 A 4861.811 4861.811 0 0 0 66.405 23.14 A 5539.072 5539.072 0 0 0 65.85 21.758 Q 64.727 18.965 63.34 16.367 Q 61.953 13.77 61.016 13.184 Q 60.703 12.988 59.121 12.871 A 87.913 87.913 0 0 1 59.089 12.645 Q 58.984 11.898 58.984 11.787 A 1.956 1.956 0 0 1 58.989 11.653 Q 58.994 11.583 59.004 11.506 A 3.043 3.043 0 0 1 59.004 11.504 Q 61.836 9.922 65.664 9.922 Q 66.035 9.922 66.738 9.961 A 5.285 5.285 0 0 1 67.499 11.088 Q 69.351 14.495 72.969 26.27 Q 74.898 22.292 76.174 19.013 A 62.027 62.027 0 0 0 76.895 17.07 A 289.603 289.603 0 0 0 76.27 15.358 Q 75.489 13.238 75.026 12.114 A 26.415 26.415 0 0 0 74.844 11.68 A 9.961 9.961 0 0 1 75.976 10.986 Q 76.57 10.679 77.12 10.52 A 4.05 4.05 0 0 1 78.242 10.352 Q 79.433 10.352 80.115 10.949 A 2.181 2.181 0 0 1 80.508 11.406 A 5.457 5.457 0 0 1 80.899 12.104 Q 81.317 12.98 81.68 14.336 Q 82.042 15.692 82.331 16.808 A 200.201 200.201 0 0 1 82.578 17.773 Q 83.496 21.445 85.215 26.27 Q 89.492 14.355 89.688 12.383 Z M 209.16 26.113 L 209.355 18.672 A 62.545 62.545 0 0 0 209.35 17.786 Q 209.33 16.418 209.246 15.784 A 2.919 2.919 0 0 0 209.189 15.469 Q 209.027 14.82 208.781 14.488 A 1.309 1.309 0 0 0 208.77 14.473 Q 208.223 13.789 207.168 13.789 A 7.933 7.933 0 0 0 206.377 13.826 Q 205.992 13.865 205.661 13.944 A 4.147 4.147 0 0 0 205.371 14.023 Q 204.147 14.431 202.368 16.025 A 26.623 26.623 0 0 0 201.465 16.875 A 244.716 244.716 0 0 1 201.461 18.124 Q 201.443 21.472 201.348 30.391 Q 199.18 30.762 197.734 30.762 A 9.368 9.368 0 0 1 196.674 30.705 Q 195.9 30.617 195.293 30.391 A 135.286 135.286 0 0 0 195.557 25.828 A 104.798 104.798 0 0 0 195.645 21.631 A 281.291 281.291 0 0 0 195.631 18.776 Q 195.608 16.526 195.547 14.707 Q 195.547 13.954 195.276 13.513 A 1.247 1.247 0 0 0 194.492 12.949 Q 193.892 12.755 192.846 12.657 A 17.212 17.212 0 0 0 192.617 12.637 Q 192.5 12.129 192.5 11.826 A 2.047 2.047 0 0 1 192.528 11.484 A 1.686 1.686 0 0 1 192.578 11.27 Q 195.127 9.836 198.799 9.701 A 21.096 21.096 0 0 1 199.57 9.687 A 39.155 39.155 0 0 1 199.89 9.689 Q 200.332 9.692 200.58 9.707 A 5.515 5.515 0 0 1 200.586 9.707 Q 201.2 10.761 201.37 13.032 A 23.343 23.343 0 0 1 201.426 14.199 A 14.506 14.506 0 0 1 203.957 11.628 A 9.605 9.605 0 0 1 209.98 9.512 A 5.369 5.369 0 0 1 211.526 9.723 A 4.074 4.074 0 0 1 213.525 11.045 Q 214.682 12.431 214.937 14.703 A 11.097 11.097 0 0 1 214.98 15.195 Q 215.059 16.387 215.059 17.578 A 27.753 27.753 0 0 1 215.022 18.98 A 35.011 35.011 0 0 1 214.941 20.156 A 169.262 169.262 0 0 0 214.796 22.142 Q 214.609 24.937 214.609 26.621 Q 214.609 27.04 215.102 27.3 A 2.051 2.051 0 0 0 215.332 27.402 A 4.248 4.248 0 0 0 216.224 27.637 A 3.634 3.634 0 0 0 216.748 27.676 A 9.751 9.751 0 0 0 217.049 27.671 Q 217.468 27.658 217.666 27.606 A 0.782 0.782 0 0 0 217.695 27.598 Q 217.93 28.125 217.93 28.564 Q 217.93 29.004 217.891 29.16 Q 214.238 31.055 212.441 31.055 Q 210.645 31.055 209.902 29.834 A 4.135 4.135 0 0 1 209.484 28.857 Q 209.204 27.913 209.166 26.554 A 15.705 15.705 0 0 1 209.16 26.113 Z M 8.027 11.074 L 7.969 14.707 L 15.625 14.277 A 0.931 0.931 0 0 1 15.776 14.548 Q 15.938 14.973 15.938 15.801 A 13.087 13.087 0 0 1 15.742 18.066 A 12.592 12.592 0 0 1 14.928 18.155 Q 14.502 18.189 14.008 18.206 A 31.235 31.235 0 0 1 12.949 18.223 A 21.568 21.568 0 0 1 11.86 18.192 Q 10.797 18.137 9.356 17.988 A 89.349 89.349 0 0 1 7.969 17.832 L 7.93 23.398 A 48.492 48.492 0 0 0 8.062 27.061 A 35.894 35.894 0 0 0 8.457 30.352 A 10.625 10.625 0 0 1 6.899 30.694 Q 5.777 30.859 4.424 30.859 A 17.267 17.267 0 0 1 3.477 30.836 Q 2.116 30.76 1.569 30.449 A 1.059 1.059 0 0 1 1.426 30.352 Q 1.874 26.359 1.98 21.279 A 155.356 155.356 0 0 0 2.012 18.066 L 2.012 7.383 A 7.689 7.689 0 0 0 1.992 6.808 Q 1.95 6.252 1.82 5.909 A 1.179 1.179 0 0 0 1.65 5.596 Q 1.289 5.137 0.293 4.824 Q 0.027 4.47 0.003 3.721 A 4.775 4.775 0 0 1 0 3.564 A 20.415 20.415 0 0 1 0.004 3.162 Q 0.014 2.62 0.057 2.356 A 1.85 1.85 0 0 1 0.059 2.344 A 454.208 454.208 0 0 1 0.975 2.334 Q 2.01 2.324 3.414 2.314 A 1770.729 1770.729 0 0 1 4.766 2.305 A 1564.956 1564.956 0 0 0 6.194 2.295 Q 7.569 2.285 8.538 2.275 A 330.536 330.536 0 0 0 9.336 2.266 A 261.579 261.579 0 0 0 11.591 2.224 Q 14.938 2.149 19.348 1.978 A 733.42 733.42 0 0 0 19.98 1.953 A 0.473 0.473 0 0 1 20.095 2.146 Q 20.278 2.643 20.292 4.217 A 29.863 29.863 0 0 1 20.293 4.473 A 13.493 13.493 0 0 1 20.245 5.65 Q 20.138 6.867 19.793 7.653 A 3.49 3.49 0 0 1 19.688 7.871 Q 19.093 9.002 17.483 9.023 A 4.699 4.699 0 0 1 17.422 9.023 A 4.148 4.148 0 0 1 16.567 8.942 Q 16.071 8.837 15.704 8.599 A 2.017 2.017 0 0 1 15.098 7.988 L 15.098 5.625 A 581.941 581.941 0 0 0 12.787 5.518 Q 9.879 5.391 8.348 5.361 A 42.158 42.158 0 0 0 7.539 5.352 Q 8.027 7.637 8.027 10.664 L 8.027 11.074 Z M 144.277 27.07 L 144.277 24.746 L 144.238 8.398 A 6.532 6.532 0 0 0 144.155 7.31 Q 143.893 5.767 142.813 5.234 Q 142.666 5.153 142.378 5.058 A 6.687 6.687 0 0 0 142.256 5.02 A 17.555 17.555 0 0 1 142.124 4.978 Q 141.865 4.896 141.799 4.864 A 0.245 0.245 0 0 1 141.797 4.863 A 1.169 1.169 0 0 1 141.633 4.545 Q 141.504 4.174 141.504 3.584 A 21.305 21.305 0 0 1 141.508 3.176 Q 141.518 2.608 141.563 2.344 A 23.826 23.826 0 0 1 146.357 1.855 A 188.143 188.143 0 0 1 147.333 1.858 Q 148.559 1.864 149.19 1.888 A 12.5 12.5 0 0 1 149.521 1.904 A 27.013 27.013 0 0 1 149.699 1.916 Q 150.275 1.958 150.331 1.991 A 0.029 0.029 0 0 1 150.332 1.992 Q 150.588 2.102 150.57 2.71 A 3.092 3.092 0 0 1 150.566 2.793 L 150.273 10.391 L 150.273 24.316 A 28.783 28.783 0 0 0 150.28 24.929 Q 150.293 25.569 150.337 26 A 5.669 5.669 0 0 0 150.371 26.27 A 2.528 2.528 0 0 0 150.466 26.678 Q 150.583 27.035 150.801 27.266 Q 151.803 27.191 153.583 27.07 A 1118.668 1118.668 0 0 1 154.746 26.992 Q 156.765 26.858 158.12 26.746 A 92.089 92.089 0 0 0 158.887 26.68 L 159.16 24.238 A 1.37 1.37 0 0 1 159.392 23.983 Q 159.637 23.769 160.041 23.572 A 4.872 4.872 0 0 1 160.098 23.545 A 3.116 3.116 0 0 1 160.787 23.319 Q 161.246 23.223 161.807 23.223 Q 162.716 23.223 163.265 23.684 A 1.772 1.772 0 0 1 163.398 23.809 A 2.461 2.461 0 0 1 163.879 24.587 Q 164.372 25.786 164.394 28.182 A 24.55 24.55 0 0 1 164.395 28.398 A 10.03 10.03 0 0 1 164.378 29.004 Q 164.318 29.992 164.043 30.313 A 52.412 52.412 0 0 1 163.442 30.322 Q 160.879 30.35 150.539 30.351 A 8376.641 8376.641 0 0 1 149.082 30.352 L 145.273 30.352 A 0.656 0.656 0 0 1 145.029 30.19 Q 144.785 29.946 144.58 29.385 A 4.099 4.099 0 0 1 144.411 28.753 Q 144.286 28.102 144.278 27.2 A 14.134 14.134 0 0 1 144.277 27.07 Z M 186.523 19.316 L 186.406 25.879 L 186.406 26.074 A 1.642 1.642 0 0 0 186.454 26.491 Q 186.595 27.024 187.143 27.125 A 1.542 1.542 0 0 0 187.422 27.148 A 2.748 2.748 0 0 0 188.228 27.021 Q 188.562 26.919 188.911 26.735 A 5.022 5.022 0 0 0 189.082 26.641 Q 189.312 26.838 189.522 27.167 A 3.705 3.705 0 0 1 189.6 27.295 A 4.547 4.547 0 0 1 189.709 27.493 Q 189.813 27.695 189.857 27.842 A 0.87 0.87 0 0 1 189.883 27.949 Q 188.452 29.772 186.957 30.518 A 4.666 4.666 0 0 1 184.854 31.035 Q 182.687 31.035 181.606 29.269 A 5.381 5.381 0 0 1 181.211 28.477 A 16.051 16.051 0 0 1 178.737 29.901 A 13.852 13.852 0 0 1 177.549 30.381 A 14.587 14.587 0 0 1 176.329 30.753 Q 175.707 30.912 175.157 30.981 A 6.497 6.497 0 0 1 174.346 31.035 Q 173.008 31.035 171.865 30.742 Q 170.723 30.449 169.746 29.805 A 4.422 4.422 0 0 1 167.823 27.003 A 7.35 7.35 0 0 1 167.637 25.293 Q 167.637 23.613 168.564 22.354 A 5.989 5.989 0 0 1 170.38 20.739 A 7.471 7.471 0 0 1 171.094 20.371 A 15.905 15.905 0 0 1 174.458 19.302 Q 176.289 18.926 178.418 18.867 L 180.684 18.789 Q 180.796 17.485 180.816 16.632 A 14.822 14.822 0 0 0 180.82 16.289 Q 180.82 14.219 180.029 13.164 Q 179.238 12.109 177.09 12.109 A 2.958 2.958 0 0 0 176.221 12.231 A 2.263 2.263 0 0 0 175.088 13.008 A 2.886 2.886 0 0 0 174.62 13.899 Q 174.375 14.634 174.375 15.664 A 0.24 0.24 0 0 1 174.325 15.8 Q 174.216 15.957 173.867 16.149 A 4.456 4.456 0 0 1 173.711 16.23 A 5.542 5.542 0 0 1 172.41 16.667 A 4.723 4.723 0 0 1 171.494 16.758 A 3.153 3.153 0 0 1 170.744 16.674 A 2.178 2.178 0 0 1 169.736 16.133 A 2.038 2.038 0 0 1 169.167 15.124 Q 169.087 14.803 169.082 14.426 A 3.865 3.865 0 0 1 169.082 14.375 A 3.133 3.133 0 0 1 169.58 12.692 A 4.177 4.177 0 0 1 169.902 12.246 A 5.029 5.029 0 0 1 171.364 11.046 A 6.372 6.372 0 0 1 172.09 10.703 A 15.039 15.039 0 0 1 175.582 9.806 A 19.772 19.772 0 0 1 178.281 9.629 A 18.2 18.2 0 0 1 180.146 9.718 Q 182.036 9.913 183.195 10.539 A 4.386 4.386 0 0 1 183.594 10.781 A 5.386 5.386 0 0 1 185.587 13.232 A 6.834 6.834 0 0 1 185.762 13.691 A 12.284 12.284 0 0 1 186.241 15.6 Q 186.409 16.57 186.477 17.698 A 26.839 26.839 0 0 1 186.523 19.316 Z M 241.602 4.043 L 241.426 16.074 A 372.591 372.591 0 0 0 241.442 19.447 Q 241.456 20.958 241.481 22.644 A 750.179 750.179 0 0 0 241.543 26.191 Q 241.543 27.5 242.617 27.598 A 3.963 3.963 0 0 0 242.75 27.606 Q 242.974 27.617 243.34 27.617 A 20.585 20.585 0 0 1 243.571 27.618 Q 243.82 27.621 243.999 27.63 A 5.262 5.262 0 0 1 244.102 27.637 Q 244.316 28.008 244.316 28.418 Q 244.316 28.74 244.28 28.99 A 2.479 2.479 0 0 1 244.258 29.121 A 21.416 21.416 0 0 1 242.335 30.089 Q 240.169 31.035 238.535 31.035 A 2.677 2.677 0 0 1 237.035 30.238 Q 236.664 29.867 236.347 29.329 A 7.24 7.24 0 0 1 235.938 28.516 Q 234.757 29.647 233.604 30.246 A 6.989 6.989 0 0 1 233.203 30.439 A 7.081 7.081 0 0 1 230.574 31.03 A 8.23 8.23 0 0 1 230.273 31.035 A 13.49 13.49 0 0 1 228.672 30.944 A 10.481 10.481 0 0 1 227.393 30.713 Q 226.094 30.391 224.824 29.609 A 8.537 8.537 0 0 1 222.617 27.656 A 9.08 9.08 0 0 1 220.971 24.337 Q 220.609 23.014 220.53 21.445 A 17.812 17.812 0 0 1 220.508 20.547 A 11.917 11.917 0 0 1 220.817 17.785 A 9.991 9.991 0 0 1 221.484 15.859 A 9.864 9.864 0 0 1 222.943 13.577 A 8.651 8.651 0 0 1 224.102 12.461 A 12.26 12.26 0 0 1 230.977 9.83 A 15.698 15.698 0 0 1 232.168 9.785 A 13.691 13.691 0 0 1 233.098 9.82 Q 234.251 9.9 235.898 10.156 L 235.781 5 A 2.439 2.439 0 0 0 235.632 4.274 A 1.967 1.967 0 0 0 235.049 3.457 A 2.779 2.779 0 0 0 233.98 2.908 A 3.749 3.749 0 0 0 233.34 2.793 A 87.913 87.913 0 0 1 233.308 2.567 Q 233.203 1.82 233.203 1.709 A 1.956 1.956 0 0 1 233.208 1.575 Q 233.213 1.505 233.222 1.428 A 3.043 3.043 0 0 1 233.223 1.426 A 20.893 20.893 0 0 1 238.749 0.089 A 19.028 19.028 0 0 1 240.586 0 L 240.938 0 A 1.266 1.266 0 0 1 241.069 0.236 Q 241.241 0.623 241.378 1.377 A 12.585 12.585 0 0 1 241.406 1.543 A 14.434 14.434 0 0 1 241.582 3.228 A 17.1 17.1 0 0 1 241.602 4.043 Z M 114.844 21.035 L 103.203 21.914 A 9.554 9.554 0 0 0 104.073 24.435 A 7.837 7.837 0 0 0 105.703 26.582 Q 107.617 28.359 110.176 28.359 A 6.551 6.551 0 0 0 112.905 27.736 Q 113.812 27.324 114.724 26.639 A 13.016 13.016 0 0 0 115.332 26.152 A 3.585 3.585 0 0 1 115.913 26.623 Q 116.382 27.099 116.523 27.676 A 8.246 8.246 0 0 1 114.213 29.514 Q 113.198 30.073 111.937 30.46 A 15.702 15.702 0 0 1 111.211 30.664 Q 109.785 31.035 107.92 31.035 Q 106.055 31.035 104.063 30.361 A 11.257 11.257 0 0 1 100.498 28.398 A 8.479 8.479 0 0 1 98.516 26.024 A 10.529 10.529 0 0 1 98.008 25.01 A 11.021 11.021 0 0 1 97.147 21.602 A 13.373 13.373 0 0 1 97.09 20.352 A 12.059 12.059 0 0 1 97.412 17.517 A 10.199 10.199 0 0 1 98.027 15.713 A 10.431 10.431 0 0 1 99.314 13.559 A 8.826 8.826 0 0 1 100.508 12.305 A 10.949 10.949 0 0 1 107.891 9.512 A 11.347 11.347 0 0 1 111.397 10.036 A 9.802 9.802 0 0 1 114.219 11.484 A 6.966 6.966 0 0 1 116.13 13.728 A 8.165 8.165 0 0 1 116.279 14.014 A 7.406 7.406 0 0 1 117 16.539 A 9.168 9.168 0 0 1 117.051 17.52 Q 117.051 18.946 116.648 19.796 A 2.051 2.051 0 0 1 114.844 21.035 Z M 133.965 17.48 L 133.965 17.246 A 11.055 11.055 0 0 0 133.916 16.154 Q 133.808 15.081 133.468 14.52 A 1.149 1.149 0 0 0 132.441 13.906 A 3.905 3.905 0 0 0 130.504 14.428 A 4.723 4.723 0 0 0 130.313 14.541 A 10.389 10.389 0 0 0 129.428 15.165 Q 128.802 15.654 128.125 16.309 A 208.903 208.903 0 0 1 128.121 17.399 Q 128.106 19.973 128.039 27.07 A 12885.88 12885.88 0 0 1 128.008 30.391 A 34.595 34.595 0 0 1 126.73 30.586 Q 125.41 30.762 124.463 30.762 A 8.58 8.58 0 0 1 123.369 30.696 Q 122.666 30.605 122.09 30.391 Q 122.306 27.405 122.323 20.494 A 492.601 492.601 0 0 0 122.324 19.277 L 122.324 14.707 Q 122.324 13.967 122.067 13.528 A 1.226 1.226 0 0 0 121.289 12.949 Q 120.617 12.744 119.499 12.646 A 17.766 17.766 0 0 0 119.395 12.637 A 8.632 8.632 0 0 1 119.335 12.361 Q 119.277 12.073 119.263 11.874 A 1.733 1.733 0 0 1 119.258 11.748 Q 119.258 11.445 119.277 11.27 A 11.733 11.733 0 0 1 122.586 10.047 Q 124.022 9.738 125.681 9.695 A 20.989 20.989 0 0 1 126.23 9.687 A 39.155 39.155 0 0 1 126.55 9.689 Q 126.992 9.692 127.24 9.707 A 5.515 5.515 0 0 1 127.246 9.707 A 5.125 5.125 0 0 1 127.857 11.313 A 4.812 4.812 0 0 1 127.92 11.738 A 52.283 52.283 0 0 1 128.049 13.204 A 44.92 44.92 0 0 1 128.086 13.75 A 28.246 28.246 0 0 1 129.343 12.314 Q 131.152 10.396 132.5 9.883 Q 133.359 9.551 134.316 9.551 A 5.709 5.709 0 0 1 135.671 9.703 A 3.977 3.977 0 0 1 137.451 10.635 A 3.465 3.465 0 0 1 138.438 12.277 Q 138.596 12.832 138.626 13.496 A 6.998 6.998 0 0 1 138.633 13.809 A 3.577 3.577 0 0 1 138.267 15.433 A 3.629 3.629 0 0 1 137.461 16.484 A 3.984 3.984 0 0 1 134.694 17.539 A 5.084 5.084 0 0 1 134.668 17.539 Q 134.316 17.539 133.965 17.48 Z M 24.531 5.43 A 2.684 2.684 0 0 0 24.118 4.363 Q 23.709 3.765 22.946 3.486 A 3.953 3.953 0 0 0 22.051 3.281 A 87.913 87.913 0 0 1 22.019 3.055 Q 21.914 2.308 21.914 2.197 A 1.956 1.956 0 0 1 21.919 2.063 Q 21.924 1.993 21.933 1.917 A 3.043 3.043 0 0 1 21.934 1.914 A 20.366 20.366 0 0 1 29.414 0.469 L 29.785 0.469 A 1.394 1.394 0 0 1 29.97 0.813 Q 30.229 1.47 30.332 2.92 A 28.695 28.695 0 0 1 30.378 3.821 Q 30.465 6.073 30.469 11.444 A 697.249 697.249 0 0 1 30.469 11.865 A 575.949 575.949 0 0 1 30.455 15.654 Q 30.421 20.895 30.297 27.983 A 1878.96 1878.96 0 0 1 30.254 30.352 A 8.77 8.77 0 0 1 29.029 30.605 Q 28.398 30.692 27.678 30.715 A 16.358 16.358 0 0 1 27.168 30.723 Q 25.371 30.723 24.375 30.313 Q 24.663 28.165 24.715 22.822 A 257.727 257.727 0 0 0 24.727 20.332 A 575.463 575.463 0 0 0 24.531 5.43 Z M 56.535 24.355 A 12.608 12.608 0 0 0 57.383 19.727 A 13.236 13.236 0 0 0 57.225 17.645 A 9.203 9.203 0 0 0 54.316 12.109 A 9.887 9.887 0 0 0 47.461 9.434 A 23.049 23.049 0 0 0 47.159 9.436 Q 39.623 9.534 36.387 14.59 A 10.561 10.561 0 0 0 35.613 16.026 A 10.889 10.889 0 0 0 34.707 20.479 A 13.282 13.282 0 0 0 34.902 22.803 A 9.827 9.827 0 0 0 36.094 26.104 A 9.826 9.826 0 0 0 39.824 29.766 A 10.321 10.321 0 0 0 44.941 31.074 A 21.13 21.13 0 0 0 45.211 31.073 Q 50.571 31.004 53.867 28.203 A 8.723 8.723 0 0 0 55.106 26.909 A 10.001 10.001 0 0 0 56.465 24.531 A 12.149 12.149 0 0 0 56.535 24.355 Z M 40.469 20.293 A 9.705 9.705 0 0 0 41.15 23.963 A 9.12 9.12 0 0 0 42.402 26.133 A 7.705 7.705 0 0 0 43.743 27.504 A 5.066 5.066 0 0 0 46.934 28.633 Q 51.517 28.633 51.728 21.506 A 23.815 23.815 0 0 0 51.738 20.801 A 13.894 13.894 0 0 0 51.499 18.144 Q 51.189 16.555 50.479 15.295 A 7.98 7.98 0 0 0 49.961 14.492 A 6.474 6.474 0 0 0 48.507 13.028 A 5.174 5.174 0 0 0 45.43 12.07 Q 44.043 12.07 43.027 12.773 A 4.422 4.422 0 0 0 41.501 14.631 A 5.248 5.248 0 0 0 41.484 14.668 Q 40.469 16.953 40.469 20.293 Z M 233.145 12.637 A 7.44 7.44 0 0 0 230.892 12.963 A 6.071 6.071 0 0 0 228.408 14.473 A 5.708 5.708 0 0 0 227.053 16.696 Q 226.747 17.583 226.632 18.667 A 13.016 13.016 0 0 0 226.563 20.039 A 18.083 18.083 0 0 0 226.633 21.686 Q 226.707 22.499 226.861 23.186 A 7.941 7.941 0 0 0 227.158 24.209 A 11.337 11.337 0 0 0 227.538 25.121 Q 227.955 26.002 228.426 26.51 A 3.163 3.163 0 0 0 228.477 26.563 A 5.969 5.969 0 0 0 229.427 27.366 Q 230.075 27.8 230.75 27.949 A 3.301 3.301 0 0 0 231.465 28.027 A 8.388 8.388 0 0 0 232.327 27.986 Q 233.205 27.895 233.765 27.604 A 2.38 2.38 0 0 0 233.848 27.559 A 4.266 4.266 0 0 0 234.342 27.222 Q 234.856 26.822 235.496 26.144 A 19.88 19.88 0 0 0 235.898 25.703 Q 235.992 23.931 236.022 21.627 A 173.122 173.122 0 0 0 236.035 19.424 Q 236.035 15.723 235.977 12.871 A 17.699 17.699 0 0 0 233.188 12.637 A 16.432 16.432 0 0 0 233.145 12.637 Z M 111.797 16.934 A 6.749 6.749 0 0 0 111.645 15.456 Q 111.415 14.433 110.84 13.683 A 4.08 4.08 0 0 0 110.508 13.301 A 4.327 4.327 0 0 0 107.9 12.04 A 6.006 6.006 0 0 0 107.129 11.992 Q 105.039 11.992 103.965 13.955 A 7.514 7.514 0 0 0 103.31 15.64 Q 102.891 17.222 102.891 19.395 A 259.627 259.627 0 0 0 107.52 18.853 A 189.884 189.884 0 0 0 111.68 18.281 A 8.601 8.601 0 0 0 111.785 17.342 A 7.406 7.406 0 0 0 111.797 16.934 Z M 180.488 21.035 L 177.773 21.152 A 6.903 6.903 0 0 0 176.519 21.259 Q 175.814 21.389 175.26 21.679 A 3.446 3.446 0 0 0 174.551 22.168 A 3.253 3.253 0 0 0 173.422 24.519 A 3.974 3.974 0 0 0 173.418 24.707 A 5.527 5.527 0 0 0 173.468 25.476 Q 173.6 26.412 174.082 26.895 A 1.678 1.678 0 0 0 174.621 27.241 Q 175.165 27.472 176.052 27.535 A 10.118 10.118 0 0 0 176.768 27.559 A 7.369 7.369 0 0 0 180.148 26.722 A 8.993 8.993 0 0 0 180.684 26.426 A 19.371 19.371 0 0 1 180.529 25.41 Q 180.467 24.909 180.444 24.466 A 9.759 9.759 0 0 1 180.43 23.955 A 49.414 49.414 0 0 1 180.433 23.381 Q 180.444 22.441 180.488 21.035 Z" vector-effect="non-scaling-stroke"/></g></svg>